HIERARCHY
ROOT RootJoint
{
    OFFSET   0.000000   0.000000   0.000000
    CHANNELS 6 Xposition Yposition Zposition Xrotation Yrotation Zrotation
    JOINT pelvis_lowerback
    {
        OFFSET   0.000000   0.093605   0.000000
        CHANNELS 3 Xrotation Yrotation Zrotation
        JOINT lowerback_torso
        {
            OFFSET   0.000000   0.100000   0.000000
            CHANNELS 3 Xrotation Yrotation Zrotation
            JOINT torso_head
            {
                OFFSET   0.000000   0.282350   0.000000
                CHANNELS 3 Xrotation Yrotation Zrotation
                End Site
                {
                    OFFSET   0.000000   0.192650   0.000000
                }
            }
            JOINT rTorso_Clavicle
            {
                OFFSET  -0.001000   0.157500   0.000000
                CHANNELS 3 Xrotation Yrotation Zrotation
                JOINT rShoulder
                {
                    OFFSET  -0.117647   0.000000   0.000000
                    CHANNELS 3 Xrotation Yrotation Zrotation
                    JOINT rElbow
                    {
                        OFFSET  -0.245000   0.000000   0.000000
                        CHANNELS 3 Xrotation Yrotation Zrotation
                        JOINT rWrist
                        {
                            OFFSET  -0.240000   0.000000   0.000000
                            CHANNELS 3 Xrotation Yrotation Zrotation
                            End Site
                            {
                                OFFSET  -0.116353  -0.002500   0.000000
                            }
                        }
                    }
                }
            }
            JOINT lTorso_Clavicle
            {
                OFFSET   0.001000   0.157500   0.000000
                CHANNELS 3 Xrotation Yrotation Zrotation
                JOINT lShoulder
                {
                    OFFSET   0.117647   0.000000   0.000000
                    CHANNELS 3 Xrotation Yrotation Zrotation
                    JOINT lElbow
                    {
                        OFFSET   0.245000   0.000000   0.000000
                        CHANNELS 3 Xrotation Yrotation Zrotation
                        JOINT lWrist
                        {
                            OFFSET   0.240000   0.000000   0.000000
                            CHANNELS 3 Xrotation Yrotation Zrotation
                            End Site
                            {
                                OFFSET   0.116353  -0.002500   0.000000
                            }
                        }
                    }
                }
            }
        }
    }
    JOINT rHip
    {
        OFFSET  -0.100000  -0.051395   0.000000
        CHANNELS 3 Xrotation Yrotation Zrotation
        JOINT rKnee
        {
            OFFSET   0.000000  -0.410000   0.000000
            CHANNELS 3 Xrotation Yrotation Zrotation
            JOINT rAnkle
            {
                OFFSET   0.000000  -0.390000   0.000000
                CHANNELS 3 Xrotation Yrotation Zrotation
                JOINT rToeJoint
                {
                    OFFSET   0.000000  -0.050000   0.130000
                    CHANNELS 3 Xrotation Yrotation Zrotation
                    End Site
                    {
                        OFFSET  -0.010000   0.002000   0.060000
                    }
                }
            }
        }
    }
    JOINT lHip
    {
        OFFSET   0.100000  -0.051395   0.000000
        CHANNELS 3 Xrotation Yrotation Zrotation
        JOINT lKnee
        {
            OFFSET   0.000000  -0.410000   0.000000
            CHANNELS 3 Xrotation Yrotation Zrotation
            JOINT lAnkle
            {
                OFFSET   0.000000  -0.390000   0.000000
                CHANNELS 3 Xrotation Yrotation Zrotation
                JOINT lToeJoint
                {
                    OFFSET   0.000000  -0.050000   0.130000
                    CHANNELS 3 Xrotation Yrotation Zrotation
                    End Site
                    {
                        OFFSET   0.010000   0.002000   0.060000
                    }
                }
            }
        }
    }
}
MOTION
Frames: 5
Frame Time:   0.008333
 -2.530554   0.947469   9.206178   3.706573  -2.435297   3.310931   6.052513   5.899137  -2.911468   1.542897   4.253125  -1.492584  -1.605198  -3.687536  -0.355821   2.549629  -0.740868  -6.590066   3.847176   8.186191  55.569979 179.998206  80.233562 -179.998276  -0.262126   4.079335 -11.907339   8.152193  10.288268   5.317672  10.932596   1.825042 -58.242999 179.995156 -84.503287 179.995779  -3.974529  -2.776037  10.296310  -5.985261   0.228489  -2.223268  42.762445   0.010857  -0.001718   7.167767   0.431414   4.396880 -22.043223   0.000514   0.003623 -25.171120  -8.187631  -4.364246  25.961361  -0.018474   0.007742  -4.995593  -1.775499   1.071635  -3.790399   0.001823  -0.002038
 -2.530901   0.945051   9.217185   3.406318  -2.405970   3.277935   6.097892   5.795479  -2.972108   1.499638   4.222021  -1.432278  -1.610229  -3.523663  -0.259527   2.582191  -0.853419  -6.471231   4.069064   8.062390  55.852279 179.996692  80.330600 -179.997028  -0.219749   4.271088 -11.836822   8.017023  10.088087   5.228372  10.549979   1.749400 -58.078721 179.996757 -84.430414 179.997246  -4.037125  -2.666150  10.382147  -5.863412   0.237026  -2.540931  44.975782   0.013930  -0.005532   6.417739   0.376844   4.653169 -20.407141   0.002300  -0.002223 -24.509119  -8.358848  -4.673972  26.036326  -0.014589   0.006046  -5.241303  -1.829604   1.515370  -3.555499   0.001218  -0.002203
 -2.531219   0.941919   9.228318   3.072925  -2.348690   3.224396   6.115973   5.653508  -3.004681   1.468988   4.144515  -1.348541  -1.605328  -3.360365  -0.165789   2.636793  -0.979687  -6.328886   4.301888   7.934948  56.124235 179.994772  80.440546 -179.995395  -0.192084   4.383404 -11.767015   7.844750   9.844498   5.151745  10.142047   1.648494 -57.911640 179.997858 -84.346580 179.998270  -4.077513  -2.658763  10.434208  -5.737547   0.243334  -2.868599  47.232896   0.016941  -0.008992   5.724115   0.320310   4.891327 -18.941982   0.003988  -0.006518 -23.779299  -8.533253  -4.961130  26.256219  -0.011096   0.004485  -5.468553  -1.879951   1.930204  -3.367789   0.000841  -0.002158
 -2.531518   0.938107   9.239518   2.761328  -2.293339   3.149050   6.089528   5.484825  -3.011364   1.414322   4.031664  -1.249022  -1.603144  -3.207255  -0.076816   2.703985  -1.112844  -6.179258   4.536134   7.812055  56.386443 179.992786  80.549228 -179.993650  -0.174282   4.450598 -11.685810   7.661987   9.591236   5.085020   9.738009   1.539804 -57.752439 179.998511 -84.260489 179.998883  -4.104591  -2.715132  10.472494  -5.631431   0.256448  -3.198154  49.381646   0.019177  -0.012159   5.079425   0.264358   5.112608 -17.599725   0.005400  -0.009806 -23.017270  -8.703867  -5.207855  26.507774  -0.008226   0.003211  -5.677949  -1.928074   2.317203  -3.190888   0.000592  -0.002075
 -2.531801   0.933621   9.250733   2.481449  -2.256284   3.055592   6.028601   5.299715  -2.998607   1.334576   3.896419  -1.140426  -1.606263  -3.064675   0.007509   2.775211  -1.248035  -6.032237   4.764179   7.694268  56.635209 179.990949  80.652996 -179.991989  -0.161144   4.497690 -11.606646   7.477204   9.338318   5.027053   9.346039   1.429128 -57.601938 179.998793 -84.174944 179.999149  -4.123249  -2.808863  10.505325  -5.553744   0.276670  -3.529938  51.394895   0.020455  -0.015113   4.478231   0.209254   5.318254 -16.371131   0.006427  -0.012387 -22.241141  -8.870643  -5.415409  26.767319  -0.005926   0.002166  -5.871897  -1.974005   2.678300  -3.025558   0.000431  -0.001991
